<svg width="15" height="15" viewBox="0 0 15 15" fill="none" xmlns="http://www.w3.org/2000/svg">
<g clip-path="url(#clip0_92_837)">
<path d="M12.6562 0.9375H2.34375C1.97079 0.9375 1.6131 1.08566 1.34938 1.34938C1.08566 1.6131 0.9375 1.97079 0.9375 2.34375L0.9375 12.6562C0.9375 13.0292 1.08566 13.3869 1.34938 13.6506C1.6131 13.9143 1.97079 14.0625 2.34375 14.0625H6.36475V9.60029H4.51904V7.5H6.36475V5.89922C6.36475 4.07842 7.44873 3.07266 9.10898 3.07266C9.9041 3.07266 10.7355 3.21445 10.7355 3.21445V5.00156H9.81943C8.9168 5.00156 8.63525 5.56172 8.63525 6.13623V7.5H10.6503L10.328 9.60029H8.63525V14.0625H12.6562C13.0292 14.0625 13.3869 13.9143 13.6506 13.6506C13.9143 13.3869 14.0625 13.0292 14.0625 12.6562V2.34375C14.0625 1.97079 13.9143 1.6131 13.6506 1.34938C13.3869 1.08566 13.0292 0.9375 12.6562 0.9375Z" fill="#F0EFF0"/>
</g>
<defs>
<clipPath id="clip0_92_837">
<rect width="15" height="15" fill="white"/>
</clipPath>
</defs>
</svg>
