<svg width="15" height="15" viewBox="0 0 15 15" fill="none" xmlns="http://www.w3.org/2000/svg">
<g clip-path="url(#clip0_92_835)">
<path d="M5.09473 11.6426C5.09473 11.7012 5.02734 11.748 4.94238 11.748C4.8457 11.7568 4.77832 11.71 4.77832 11.6426C4.77832 11.584 4.8457 11.5371 4.93066 11.5371C5.01855 11.5283 5.09473 11.5752 5.09473 11.6426ZM4.18359 11.5107C4.16309 11.5693 4.22168 11.6367 4.30957 11.6543C4.38574 11.6836 4.47363 11.6543 4.49121 11.5957C4.50879 11.5371 4.45312 11.4697 4.36523 11.4434C4.28906 11.4229 4.2041 11.4521 4.18359 11.5107ZM5.47852 11.4609C5.39355 11.4814 5.33496 11.5371 5.34375 11.6045C5.35254 11.6631 5.42871 11.7012 5.5166 11.6807C5.60156 11.6602 5.66016 11.6045 5.65137 11.5459C5.64258 11.4902 5.56348 11.4521 5.47852 11.4609ZM7.40625 0.234375C3.34277 0.234375 0.234375 3.31934 0.234375 7.38281C0.234375 10.6318 2.2793 13.4121 5.2002 14.3906C5.5752 14.458 5.70703 14.2266 5.70703 14.0361C5.70703 13.8545 5.69824 12.8525 5.69824 12.2373C5.69824 12.2373 3.64746 12.6768 3.2168 11.3643C3.2168 11.3643 2.88281 10.5117 2.40234 10.292C2.40234 10.292 1.73145 9.83203 2.44922 9.84082C2.44922 9.84082 3.17871 9.89941 3.58008 10.5967C4.22168 11.7275 5.29688 11.4023 5.71582 11.209C5.7832 10.7402 5.97363 10.415 6.18457 10.2217C4.54688 10.04 2.89453 9.80273 2.89453 6.98438C2.89453 6.17871 3.11719 5.77441 3.58594 5.25879C3.50977 5.06836 3.26074 4.2832 3.66211 3.26953C4.27441 3.0791 5.68359 4.06055 5.68359 4.06055C6.26953 3.89648 6.89941 3.81152 7.52344 3.81152C8.14746 3.81152 8.77734 3.89648 9.36328 4.06055C9.36328 4.06055 10.7725 3.07617 11.3848 3.26953C11.7861 4.28613 11.5371 5.06836 11.4609 5.25879C11.9297 5.77734 12.2168 6.18164 12.2168 6.98438C12.2168 9.81152 10.4912 10.0371 8.85352 10.2217C9.12305 10.4531 9.35156 10.8926 9.35156 11.5811C9.35156 12.5684 9.34277 13.79 9.34277 14.0303C9.34277 14.2207 9.47754 14.4521 9.84961 14.3848C12.7793 13.4121 14.7656 10.6318 14.7656 7.38281C14.7656 3.31934 11.4697 0.234375 7.40625 0.234375ZM3.08203 10.3389C3.04395 10.3682 3.05273 10.4355 3.10254 10.4912C3.14941 10.5381 3.2168 10.5586 3.25488 10.5205C3.29297 10.4912 3.28418 10.4238 3.23438 10.3682C3.1875 10.3213 3.12012 10.3008 3.08203 10.3389ZM2.76562 10.1016C2.74512 10.1396 2.77441 10.1865 2.83301 10.2158C2.87988 10.2451 2.93848 10.2363 2.95898 10.1953C2.97949 10.1572 2.9502 10.1104 2.8916 10.0811C2.83301 10.0635 2.78613 10.0723 2.76562 10.1016ZM3.71484 11.1445C3.66797 11.1826 3.68555 11.2705 3.75293 11.3262C3.82031 11.3936 3.90527 11.4023 3.94336 11.3555C3.98145 11.3174 3.96387 11.2295 3.90527 11.1738C3.84082 11.1064 3.75293 11.0977 3.71484 11.1445ZM3.38086 10.7139C3.33398 10.7432 3.33398 10.8193 3.38086 10.8867C3.42773 10.9541 3.50684 10.9834 3.54492 10.9541C3.5918 10.916 3.5918 10.8398 3.54492 10.7725C3.50391 10.7051 3.42773 10.6758 3.38086 10.7139Z" fill="#F0EFF0"/>
</g>
<defs>
<clipPath id="clip0_92_835">
<rect width="15" height="15" fill="white"/>
</clipPath>
</defs>
</svg>
