<svg width="15" height="15" viewBox="0 0 15 15" fill="none" xmlns="http://www.w3.org/2000/svg">
<g clip-path="url(#clip0_92_839)">
<path d="M13.125 0.9375H1.87207C1.35645 0.9375 0.9375 1.3623 0.9375 1.88379V13.1162C0.9375 13.6377 1.35645 14.0625 1.87207 14.0625H13.125C13.6406 14.0625 14.0625 13.6377 14.0625 13.1162V1.88379C14.0625 1.3623 13.6406 0.9375 13.125 0.9375ZM4.9043 12.1875H2.95898V5.92383H4.90723V12.1875H4.9043ZM3.93164 5.06836C3.30762 5.06836 2.80371 4.56152 2.80371 3.94043C2.80371 3.31934 3.30762 2.8125 3.93164 2.8125C4.55273 2.8125 5.05957 3.31934 5.05957 3.94043C5.05957 4.56445 4.55566 5.06836 3.93164 5.06836ZM12.1963 12.1875H10.251V9.14062C10.251 8.41406 10.2363 7.47949 9.24023 7.47949C8.22656 7.47949 8.07129 8.27051 8.07129 9.08789V12.1875H6.12598V5.92383H7.99219V6.7793H8.01855C8.2793 6.28711 8.91504 5.76855 9.86133 5.76855C11.8301 5.76855 12.1963 7.06641 12.1963 8.75391V12.1875Z" fill="#F0EFF0"/>
</g>
<defs>
<clipPath id="clip0_92_839">
<rect width="15" height="15" fill="white"/>
</clipPath>
</defs>
</svg>
